<?xml version="1.0" encoding="UTF-8" standalone="no"?>
<!-- Created with Inkscape (http://www.inkscape.org/) -->

<svg
   width="550"
   height="290"
   viewBox="0 0 145.52084 76.729168"
   version="1.1"
   id="svg5"
   sodipodi:docname="krs-gopher.svg"
   inkscape:version="1.2.2 (b0a8486541, 2022-12-01)"
   inkscape:export-filename="krs-gopher.png"
   inkscape:export-xdpi="16.77"
   inkscape:export-ydpi="16.77"
   xmlns:inkscape="http://www.inkscape.org/namespaces/inkscape"
   xmlns:sodipodi="http://sodipodi.sourceforge.net/DTD/sodipodi-0.dtd"
   xmlns="http://www.w3.org/2000/svg"
   xmlns:svg="http://www.w3.org/2000/svg"
   xmlns:rdf="http://www.w3.org/1999/02/22-rdf-syntax-ns#"
   xmlns:cc="http://creativecommons.org/ns#"
   xmlns:dc="http://purl.org/dc/elements/1.1/">
  <sodipodi:namedview
     id="namedview7"
     pagecolor="#ffffff"
     bordercolor="#666666"
     borderopacity="1.0"
     inkscape:showpageshadow="2"
     inkscape:pageopacity="0.0"
     inkscape:pagecheckerboard="0"
     inkscape:deskcolor="#d1d1d1"
     inkscape:document-units="mm"
     showgrid="false"
     inkscape:zoom="1.57625"
     inkscape:cx="400"
     inkscape:cy="168.75496"
     inkscape:window-width="1920"
     inkscape:window-height="1013"
     inkscape:window-x="0"
     inkscape:window-y="43"
     inkscape:window-maximized="1"
     inkscape:current-layer="layer1" />
  <defs
     id="defs2" />
  <g
     inkscape:label="Ebene 1"
     inkscape:groupmode="layer"
     id="layer1"
     transform="translate(-41.916016,-42.086014)">
    <g
       id="g4368"
       transform="matrix(1.3741985,0,0,1.3741985,-14.226113,-15.23941)">
      <g
         id="g107517"
         transform="matrix(0.23096737,0,0,0.23096737,32.70029,33.383229)">
        <path
           id="path22947"
           style="fill:#e6dcbb;stroke:#655718;stroke-width:0.95;stroke-linecap:round"
           d="m 158.13713,206.90976 c 1.41734,7.20785 2.29812,13.88054 -4.69427,14.90386 -4.0758,0.59649 -8.27125,-0.16275 -9.6886,-7.37061 -1.41734,-7.20786 0.54602,-17.70804 4.55594,-18.73136 4.00992,-1.02331 8.40958,3.99025 9.82693,11.19811 z"
           sodipodi:nodetypes="sssss" />
        <path
           id="path62434"
           style="fill:#90f0f7;stroke:#655e40;stroke-width:0.950001;stroke-linecap:round"
           d="m 153.57494,58.706743 c -6.09313,13.846662 -7.10678,12.444454 -10.72756,11.313969 -3.62078,-1.130489 -7.9338,-5.623652 -1.50952,-15.010955 5.73023,-8.373144 8.28641,-8.850062 9.9073,-9.577206 5.11017,-2.292466 6.33522,4.17183 2.32978,13.274192 z"
           sodipodi:nodetypes="sssss" />
        <path
           id="path234"
           style="fill:#90f0f7;stroke:#655e40;stroke-width:0.95;stroke-linecap:round;stroke-opacity:1"
           d="m 172.95032,137.14133 c -4.79429,58.007 -27.49004,80.40413 -61.40007,80.54477 C 60.28161,217.89873 63.193729,181.34759 56.821318,137.32273 52.01555,104.12129 63.655981,81.801867 71.314058,73.751543 75.363261,69.49494 81.5801,65.196389 88.045921,62.663907 c 6.655112,-2.606622 14.716219,-6.159268 23.504329,-6.067357 33.90847,0.354635 66.243,21.949293 61.40007,80.54478 z"
           sodipodi:nodetypes="sssssss" />
        <ellipse
           style="fill:#f7f7f7;fill-opacity:1;stroke:#555565;stroke-width:0.95;stroke-linecap:round;stroke-dasharray:none;stroke-opacity:1"
           id="path10487"
           cx="152.29335"
           cy="100.965"
           rx="18.265139"
           ry="18.296249" />
        <ellipse
           style="fill:#f7f7f7;fill-opacity:1;stroke:#555565;stroke-width:0.95;stroke-linecap:round;stroke-dasharray:none;stroke-opacity:1"
           id="circle13913"
           cx="92.653381"
           cy="98.039375"
           rx="19.227694"
           ry="19.260443" />
        <ellipse
           style="fill:#000000;fill-opacity:1;stroke:none;stroke-width:0.95;stroke-linecap:round;stroke-dasharray:none;stroke-opacity:1"
           id="path15367"
           cx="160.21956"
           cy="99.960732"
           rx="5.6383433"
           ry="5.6479468" />
        <ellipse
           style="fill:#ffffff;fill-opacity:1;stroke:none;stroke-width:0.95;stroke-linecap:round;stroke-dasharray:none;stroke-opacity:1"
           id="path17599"
           cx="161.19496"
           cy="99.921341"
           rx="1.8590176"
           ry="1.6485199" />
        <ellipse
           style="fill:#000000;fill-opacity:1;stroke:none;stroke-width:0.95;stroke-linecap:round;stroke-dasharray:none;stroke-opacity:1"
           id="circle17861"
           cx="89.609512"
           cy="97.764885"
           rx="5.6383433"
           ry="5.6479468" />
        <ellipse
           style="fill:#ffffff;fill-opacity:1;stroke:none;stroke-width:0.95;stroke-linecap:round;stroke-dasharray:none;stroke-opacity:1"
           id="ellipse17863"
           cx="90.584908"
           cy="97.725502"
           rx="1.8590176"
           ry="1.6485199" />
        <path
           id="path27152"
           style="fill:#e6dcbb;stroke:#655718;stroke-width:0.95;stroke-linecap:round"
           d="m 78.029257,204.3362 c -0.485585,1.22125 -0.881055,2.55729 -1.160553,3.97866 -1.417348,7.20785 -2.29812,13.88054 4.69427,14.90386 4.0758,0.59649 8.271264,-0.16275 9.688604,-7.37061 0.243646,-1.23906 0.387389,-2.5754 0.438007,-3.94417"
           sodipodi:nodetypes="csssc" />
        <rect
           style="fill:#ffffff;fill-opacity:1;stroke:#655e40;stroke-width:0.95;stroke-linecap:round;stroke-dasharray:none;stroke-opacity:1"
           id="rect50034"
           width="6.0178018"
           height="11.446341"
           x="131.80519"
           y="114.67996"
           ry="2.0177233"
           rx="2.0177233"
           transform="rotate(4.1191957)" />
        <rect
           style="fill:#ffffff;fill-opacity:1;stroke:#655e40;stroke-width:0.95;stroke-linecap:round;stroke-dasharray:none;stroke-opacity:1"
           id="rect45778"
           width="6.0178018"
           height="11.446341"
           x="126.36806"
           y="115.20081"
           ry="2.0177233"
           rx="2.0177233"
           transform="rotate(4.1191957)" />
        <path
           id="path31510"
           style="fill:#e6dcbb;stroke:#655718;stroke-width:0.95;stroke-linecap:round"
           d="m 135.326,119.18244 c 1.52501,3.61224 4.16844,7.27789 -5.45108,7.3391 -1.46835,0.009 -3.11145,-1.76472 -5.64141,-1.69854 -2.52996,0.0662 -7.38971,1.60765 -9.31642,1.29931 -5.83657,-0.93407 -4.96024,-4.30587 -3.65163,-6.86428 2.75696,-5.38999 4.13409,-5.6463 8.40203,-4.2061 0.97246,0.32815 2.12563,0.6528 3.44323,0.73151 1.3176,0.0787 2.23829,-0.1224 3.19369,-0.35788 4.99931,-1.23218 6.97738,-1.08516 9.02159,3.75688 z"
           sodipodi:nodetypes="sszscszss" />
        <path
           id="path38047"
           style="fill:#aba389;stroke:#655e40;stroke-width:0.95;stroke-linecap:round"
           d="m 132.39811,110.45981 c 0,2.60687 -3.58117,5.8314 -7.40526,5.8314 -3.82409,0 -7.49411,-1.03066 -7.49411,-3.63754 0,-2.60687 2.72745,-8.02352 7.97524,-6.91402 3.74139,0.79101 6.92413,2.11329 6.92413,4.72016 z"
           sodipodi:nodetypes="sssss" />
        <path
           id="path58024"
           style="fill:#e6dcbb;stroke:#655718;stroke-width:0.950006;stroke-linecap:round"
           d="m 166.8414,137.50401 c 1.52443,0.32798 3.11677,0.75554 4.73242,1.28197 8.19302,2.66952 15.5383,5.35936 12.70814,9.38264 -1.64966,2.34513 -4.7588,4.11372 -12.95185,1.44417 -1.4084,-0.4589 -2.86132,-1.01414 -4.29586,-1.6318"
           sodipodi:nodetypes="csssc" />
        <path
           id="path66067"
           style="fill:#90f0f7;stroke:#655e40;stroke-width:0.950001;stroke-linecap:round"
           d="m 82.043068,70.453053 c -1.06562,-1.886348 -4.326749,-5.806307 -5.17057,-9.543287 -2.041999,-9.043279 -0.271571,-17.35287 3.421803,-18.217193 3.693374,-0.86432 7.810642,2.336112 9.876837,12.063771 0.839175,3.950839 2.440313,5.830916 2.523189,7.921948"
           sodipodi:nodetypes="csssc" />
        <path
           id="rect72655"
           style="fill:#f7de90;fill-opacity:1;stroke:#655e40;stroke-width:0.949993;stroke-linecap:round"
           d="m 82.0117,49.86372 c 6.201305,4.051168 4.200087,16.367985 4.15247,16.810742"
           sodipodi:nodetypes="cc" />
        <path
           id="path75148"
           style="fill:#f7de90;fill-opacity:1;stroke:#655e40;stroke-width:0.949993;stroke-linecap:round"
           d="m 149.04253,62.426244 c -0.81222,2.31994 -0.52759,4.834999 -0.0823,5.34358 2.38213,-3.289631 5.16395,-9.447378 5.91403,-13.791423 -3.82995,3.155944 -4.84374,5.625916 -5.8317,8.447843 z"
           sodipodi:nodetypes="sccs" />
        <path
           id="rect77367"
           style="fill:#ece73b;fill-opacity:1;stroke:#564c22;stroke-width:0.950001;stroke-linecap:round;stroke-dasharray:none;stroke-opacity:1"
           d="m 72.086956,171.69918 a 5.5308541,10.131968 65.035885 0 0 -6.851124,9.29053 5.5308541,10.131968 65.035885 0 0 8.939284,1.70932 l 2.304413,4.94992 c -0.106933,0.0454 -0.21632,0.0941 -0.327648,0.14591 l -2.129571,0.99142 c -0.941448,0.43828 -1.641581,0.91464 -1.570276,1.06781 l 1.063669,2.28478 c 0.0713,0.15315 0.886334,-0.0764 1.827781,-0.51469 l 2.129572,-0.99141 c 0.111327,-0.0518 0.219025,-0.10417 0.322582,-0.15679 l 1.385803,2.97673 c -0.299219,0.0975 -0.659407,0.23991 -1.041483,0.41779 l -3.415236,1.58995 c -0.941446,0.43828 -1.641787,0.91419 -1.570482,1.06736 l 1.079673,2.31916 c 0.0713,0.15315 0.886334,-0.0764 1.827781,-0.51468 l 3.415236,-1.58995 c 0.382076,-0.17788 0.722933,-0.36182 0.990162,-0.52803 l 0.298541,0.64127 c 0.0713,0.15316 0.886335,-0.0764 1.827781,-0.51468 l 1.417974,-0.66013 c 0.941446,-0.43829 1.642218,-0.91441 1.570917,-1.06757 L 79.00249,180.47964 a 5.5308541,10.131968 65.035885 0 0 4.604155,-8.04283 5.5308541,10.131968 65.035885 0 0 -11.519863,-0.73801 z m 1.427666,3.06665 a 2.1479748,4.6676672 65.035885 0 1 5.138427,-0.0224 2.1479748,4.6676672 65.035885 0 1 -3.325226,3.91723 2.1479748,4.6676672 65.035885 0 1 -5.138223,0.0229 2.1479748,4.6676672 65.035885 0 1 3.325022,-3.91768 z" />
        <path
           id="path77952"
           style="fill:#ece73b;fill-opacity:1;stroke:#564c22;stroke-width:0.950001;stroke-linecap:round;stroke-dasharray:none;stroke-opacity:1"
           d="m 86.589849,156.93171 a 5.5308541,10.131968 14.55853 0 0 2.806528,11.19711 5.5308541,10.131968 14.55853 0 0 7.007332,-5.80774 l 5.284721,1.37249 c -0.0331,0.11135 -0.0651,0.22674 -0.096,0.34559 l -0.59047,2.27362 c -0.26104,1.00512 -0.33914,1.84833 -0.17562,1.8908 l 2.43932,0.63351 c 0.16351,0.0425 0.50512,-0.73231 0.76615,-1.73744 l 0.59048,-2.27361 c 0.0309,-0.11886 0.059,-0.23524 0.0843,-0.34861 l 3.17807,0.82537 c -0.11521,0.29285 -0.23457,0.66133 -0.34051,1.06924 l -0.94696,3.64624 c -0.26103,1.00513 -0.33961,1.84821 -0.17609,1.89068 l 2.47602,0.64304 c 0.16352,0.0425 0.50512,-0.73231 0.76616,-1.73743 l 0.94696,-3.64624 c 0.10594,-0.40792 0.18096,-0.78791 0.22281,-1.09981 l 0.68465,0.1778 c 0.16351,0.0425 0.50512,-0.73231 0.76615,-1.73743 l 0.39317,-1.51388 c 0.26104,-1.00513 0.33973,-1.84868 0.17622,-1.89115 l -15.089535,-3.91887 a 5.5308541,10.131968 14.55853 0 0 -3.274015,-8.66984 5.5308541,10.131968 14.55853 0 0 -7.900325,8.41646 z m 3.274076,0.85031 a 2.1479748,4.6676672 14.55853 0 1 3.252696,-3.97793 2.1479748,4.6676672 14.55853 0 1 0.90553,5.05785 2.1479748,4.6676672 14.55853 0 1 -3.252223,3.97805 2.1479748,4.6676672 14.55853 0 1 -0.906003,-5.05797 z" />
        <path
           id="path53666"
           style="fill:#e6dcbb;stroke:#655718;stroke-width:0.950003;stroke-linecap:round"
           d="m 81.615953,139.13566 c 1.090255,1.28341 2.173153,2.69689 3.210953,4.21051 5.262734,7.67561 9.785748,14.8114 4.712963,16.40249 -2.956874,0.92744 -6.784757,0.40092 -12.047493,-7.27472 -0.904676,-1.31946 -1.784092,-2.75083 -2.606682,-4.22366"
           sodipodi:nodetypes="csssc" />
        <path
           id="path77954"
           style="fill:#ece73b;fill-opacity:1;stroke:#564c22;stroke-width:0.950001;stroke-linecap:round;stroke-dasharray:none;stroke-opacity:1"
           d="m 74.857371,171.12845 a 10.131968,5.5308541 18.473182 0 0 -11.362589,2.03555 10.131968,5.5308541 18.473182 0 0 5.315797,7.38748 l -1.730072,5.17869 c -0.108842,-0.0406 -0.221767,-0.0804 -0.33824,-0.11932 l -2.227996,-0.74432 c -0.984959,-0.32905 -1.820868,-0.46454 -1.874402,-0.30429 l -0.798565,2.39037 c -0.05353,0.16024 0.696117,0.55394 1.681076,0.88299 l 2.227996,0.74432 c 0.116472,0.0389 0.230665,0.075 0.342042,0.10794 l -1.040412,3.11431 c -0.284305,-0.13494 -0.643772,-0.27917 -1.043507,-0.41272 l -3.573081,-1.19367 c -0.984958,-0.32905 -1.820713,-0.46501 -1.874247,-0.30476 l -0.81058,2.42634 c -0.05353,0.16024 0.696118,0.55394 1.681076,0.88299 l 3.573081,1.19367 c 0.399734,0.13355 0.773713,0.23434 1.082036,0.29738 l -0.224134,0.67091 c -0.05353,0.16024 0.696118,0.55394 1.681076,0.88299 l 1.483509,0.4956 c 0.984958,0.32905 1.821172,0.46515 1.874702,0.30491 l 4.939894,-14.78678 a 10.131968,5.5308541 18.473182 0 0 8.873132,-2.67448 10.131968,5.5308541 18.473182 0 0 -7.857462,-8.45649 z m -1.071842,3.20838 a 4.6676672,2.1479748 18.473182 0 1 3.746583,3.51669 4.6676672,2.1479748 18.473182 0 1 -5.10787,0.55811 4.6676672,2.1479748 18.473182 0 1 -3.746741,-3.51622 4.6676672,2.1479748 18.473182 0 1 5.108028,-0.55858 z" />
        <path
           style="color:#000000;fill:#0001d5;-inkscape-stroke:none"
           d="m 65.150391,166.29297 c -3.833199,0.4164 -7.144909,2.93481 -8.607422,7.01172 -0.565915,1.57755 -0.89371,3.05587 -1.316407,4.23242 -0.422696,1.17655 -0.888287,1.99831 -1.671875,2.59766 -1.114073,0.85212 -2.50958,1.19285 -4.503906,2.03906 -1.994326,0.8462 -4.413262,2.23758 -7.134765,5.1914 l 2.637577,0.12919 0.339659,2.22155 c 2.429186,-2.63655 3.716442,-3.80797 5.43292,-4.53628 1.716477,-0.72832 3.458852,-1.113 5.210937,-2.45313 1.45699,-1.11442 2.238373,-2.62924 2.761719,-4.08594 0.523346,-1.45669 0.841385,-2.90824 1.316406,-4.23242 1.481605,-4.13013 4.641486,-5.69567 8.673828,-4.65039 0.969185,0.25124 2.301995,1.90855 3.138544,3.82097 0.836549,1.91242 1.171161,3.90386 1.227619,4.41134 0,0 1.480648,0.57722 2.17339,0.42882 0.701584,-0.1503 1.138047,-0.59607 1.138047,-0.59607 0,0 -0.564581,-3.25614 -1.550646,-5.51037 -0.986066,-2.25423 -2.43929,-4.97104 -5.308594,-5.71484 -1.344175,-0.34845 -2.679299,-0.44349 -3.957031,-0.30469 z"
           id="path78010"
           sodipodi:nodetypes="ssssscccsssssscscsss" />
        <path
           id="rect88244"
           style="fill:#0001d5;stroke:#655e40;stroke-width:0.95;stroke-linecap:round;stroke-dasharray:none;stroke-opacity:1"
           d="m 89.135394,50.043092 c 0,0 16.350916,-6.114983 25.096246,-6.662092 10.56916,-0.661208 31.79675,2.326931 31.79675,2.326931 l -8.15472,14.295104 c 0,0 13.63911,8.029201 10.35825,12.686639 -3.28086,4.657438 -18.39463,-2.071568 -28.74547,-3.071126 -9.5259,-0.919895 -26.774241,4.965085 -29.639039,2.660016 -3.226408,-2.596026 2.281075,-11.221319 2.281075,-11.221319 z"
           sodipodi:nodetypes="cscczsscc" />
        <path
           style="fill:none;stroke:#fcff32;stroke-width:1.365;stroke-linecap:round;stroke-linejoin:miter;stroke-dasharray:none;stroke-opacity:1"
           d="m 92.736829,60.666318 c 0,0 16.850621,-3.798325 22.927021,-3.981369 8.88698,-0.267709 22.57536,3.096522 22.57536,3.096522"
           id="path89115"
           sodipodi:nodetypes="csc" />
        <path
           id="rect89169"
           style="fill:#655e40;fill-opacity:1;stroke:#fcff32;stroke-width:1.365;stroke-linecap:round"
           d="m 115.52391,46.243768 9.86378,0.403406 c 0,0 -0.47425,3.489934 -1.60353,4.973349 -0.97554,1.281467 -4.38266,2.033905 -4.38266,2.033905 0,0 -2.63633,-0.892452 -3.40751,-1.949705 -1.12482,-1.542089 -0.47008,-5.460955 -0.47008,-5.460955 z"
           sodipodi:nodetypes="ccscsc" />
      </g>
      <text
         xml:space="preserve"
         style="font-style:normal;font-variant:normal;font-weight:normal;font-stretch:normal;font-size:8.46667px;line-height:1.25;font-family:'Latin Modern Roman Dunhill';-inkscape-font-specification:'Latin Modern Roman Dunhill, Normal';font-variant-ligatures:none;font-variant-caps:normal;font-variant-numeric:normal;font-variant-east-asian:normal;letter-spacing:0px;word-spacing:0px;writing-mode:lr-tb;stroke-width:0.264583"
         x="105.50999"
         y="65.316345"
         id="text315"><tspan
           sodipodi:role="line"
           id="tspan313"
           style="font-style:normal;font-variant:normal;font-weight:normal;font-stretch:normal;font-size:8.46667px;font-family:'Latin Modern Roman Dunhill';-inkscape-font-specification:'Latin Modern Roman Dunhill, Normal';font-variant-ligatures:none;font-variant-caps:normal;font-variant-numeric:normal;font-variant-east-asian:normal;stroke-width:0.264583"
           x="105.50999"
           y="65.316345">krs</tspan></text>
      <text
         xml:space="preserve"
         style="font-weight:bold;font-size:7.05556px;line-height:1.25;font-family:'Petit Formal Script';-inkscape-font-specification:'Petit Formal Script Bold';font-variant-ligatures:none;letter-spacing:0px;word-spacing:0px;writing-mode:lr-tb;stroke-width:0.264583"
         x="82.090927"
         y="68.289871"
         id="text373"><tspan
           sodipodi:role="line"
           id="tspan371"
           style="stroke-width:0.264583"
           x="82.090927"
           y="68.289871" /></text>
      <text
         xml:space="preserve"
         style="font-style:normal;font-variant:normal;font-weight:normal;font-stretch:normal;font-size:5.64444px;line-height:1.25;font-family:'Latin Modern Roman Dunhill';-inkscape-font-specification:'Latin Modern Roman Dunhill, Normal';font-variant-ligatures:none;font-variant-caps:normal;font-variant-numeric:normal;font-variant-east-asian:normal;text-align:end;letter-spacing:0px;word-spacing:0px;writing-mode:lr-tb;text-anchor:end;stroke-width:0.264583"
         x="144.42278"
         y="77.383995"
         id="text427"><tspan
           sodipodi:role="line"
           id="tspan425"
           style="font-style:normal;font-variant:normal;font-weight:normal;font-stretch:normal;font-size:5.64444px;font-family:'Latin Modern Roman Dunhill';-inkscape-font-specification:'Latin Modern Roman Dunhill, Normal';font-variant-ligatures:none;font-variant-caps:normal;font-variant-numeric:normal;font-variant-east-asian:normal;text-align:end;text-anchor:end;stroke-width:0.264583"
           x="144.42278"
           y="77.383995">Linux key retention service</tspan><tspan
           sodipodi:role="line"
           style="font-style:normal;font-variant:normal;font-weight:normal;font-stretch:normal;font-size:5.64444px;font-family:'Latin Modern Roman Dunhill';-inkscape-font-specification:'Latin Modern Roman Dunhill, Normal';font-variant-ligatures:none;font-variant-caps:normal;font-variant-numeric:normal;font-variant-east-asian:normal;text-align:end;text-anchor:end;stroke-width:0.264583"
           x="144.42278"
           y="84.439545"
           id="tspan429">for Go</tspan></text>
      <ellipse
         style="fill:none;stroke:#655e40;stroke-width:0.4;stroke-linecap:round;stroke-dasharray:none"
         id="path483"
         cx="103.37942"
         cy="66.114311"
         rx="1.814187"
         ry="3.1134231" />
      <path
         style="fill:none;stroke:#655e40;stroke-width:0.40392;stroke-linecap:butt;stroke-linejoin:miter;stroke-dasharray:none;stroke-opacity:1"
         d="m 105.39876,66.114306 h 11.30358"
         id="path1147" />
      <rect
         style="fill:#655e40;fill-opacity:1;stroke:none;stroke-width:0.31066;stroke-linecap:square;stroke-dasharray:none;paint-order:markers stroke fill"
         id="rect1303"
         width="0.40000001"
         height="1.721505"
         x="113.36398"
         y="65.96669" />
      <rect
         style="fill:#655e40;fill-opacity:1;stroke:none;stroke-width:0.237022;stroke-linecap:square;stroke-dasharray:none;paint-order:markers stroke fill"
         id="rect1357"
         width="0.40000001"
         height="1.0021116"
         x="115.95781"
         y="65.942047" />
      <rect
         style="fill:#655e40;fill-opacity:1;stroke:none;stroke-width:0.31066;stroke-linecap:square;stroke-dasharray:none;paint-order:markers stroke fill"
         id="rect1359"
         width="0.40000001"
         height="1.721505"
         x="115.0932"
         y="65.996513" />
      <rect
         style="fill:#655e40;fill-opacity:1;stroke:none;stroke-width:0.256448;stroke-linecap:square;stroke-dasharray:none;paint-order:markers stroke fill"
         id="rect1361"
         width="0.40000001"
         height="1.1731033"
         x="114.22859"
         y="66.06134" />
    </g>
  </g>
  <metadata
     id="metadata260">
    <rdf:RDF>
      <cc:Work
         rdf:about="">
        <dc:creator>
          <cc:Agent>
            <dc:title>Detlef Wagner &lt;d-w-l@quantentunnel.de&gt;</dc:title>
          </cc:Agent>
        </dc:creator>
        <cc:license
           rdf:resource="http://creativecommons.org/licenses/by-nc-sa/4.0/" />
      </cc:Work>
      <cc:License
         rdf:about="http://creativecommons.org/licenses/by-nc-sa/4.0/">
        <cc:permits
           rdf:resource="http://creativecommons.org/ns#Reproduction" />
        <cc:permits
           rdf:resource="http://creativecommons.org/ns#Distribution" />
        <cc:requires
           rdf:resource="http://creativecommons.org/ns#Notice" />
        <cc:requires
           rdf:resource="http://creativecommons.org/ns#Attribution" />
        <cc:prohibits
           rdf:resource="http://creativecommons.org/ns#CommercialUse" />
        <cc:permits
           rdf:resource="http://creativecommons.org/ns#DerivativeWorks" />
        <cc:requires
           rdf:resource="http://creativecommons.org/ns#ShareAlike" />
      </cc:License>
    </rdf:RDF>
  </metadata>
</svg>
